HIERARCHY
ROOT pelvis
{
  OFFSET 0 100 0
  CHANNELS 6 Xposition Yposition Zposition Zrotation Xrotation Yrotation
  JOINT pelvis_right_femur
  {
    OFFSET -10.78128 -3.44521 -0.5502486
    CHANNELS 3 Zrotation Xrotation Yrotation
    JOINT right_femur_tibia
    {
      OFFSET -0.8047443 -44.0398 -0.1307829
      CHANNELS 3 Zrotation Xrotation Yrotation
      JOINT right_tibia_foot
      {
        OFFSET 3.006224 -47.83518 -5
        CHANNELS 3 Zrotation Xrotation Yrotation
        End Site
        {
          OFFSET 0 -5 15
        }
      }
    }
  }
  JOINT pelvis_left_femur
  {
    OFFSET 10.78128 -3.44521 -0.5502486
    CHANNELS 3 Zrotation Xrotation Yrotation
    JOINT left_femur_tibia
    {
      OFFSET 0.8047443 -44.0398 -0.1307829
      CHANNELS 3 Zrotation Xrotation Yrotation
      JOINT left_tibia_foot
      {
        OFFSET -4.370144 -48.10324 -4.275266
        CHANNELS 3 Zrotation Xrotation Yrotation
        End Site
        {
          OFFSET 0 -5 15
        }
      }
    }
  }
  JOINT pelvis_spine1
  {
    OFFSET 0 6.468898 -3.129235
    CHANNELS 3 Zrotation Xrotation Yrotation
    JOINT spine1
    {
      OFFSET 0 23.15396 4.99043
      CHANNELS 3 Zrotation Xrotation Yrotation
      JOINT spine2
      {
        OFFSET 0 20.79997 -5.064912
        CHANNELS 3 Zrotation Xrotation Yrotation
        JOINT neck
        {
          OFFSET 0 14.38658 9.616178
          CHANNELS 3 Zrotation Xrotation Yrotation
          End Site
          {
            OFFSET 0 20 0
          }
        }
      }
      JOINT right_manubrium
      {
        OFFSET -5.722621 16.35077 3.967754
        CHANNELS 3 Zrotation Xrotation Yrotation
        JOINT right_clavicle
        {
          OFFSET -13.16364 1.694482 -4.693211
          CHANNELS 3 Zrotation Xrotation Yrotation
          JOINT right_humerus
          {
            OFFSET -28.5034 -0.3100689 -2.792744
            CHANNELS 3 Zrotation Xrotation Yrotation
            JOINT right_radius
            {
              OFFSET -25.15693 0.02248979 -1.271978
              CHANNELS 3 Zrotation Xrotation Yrotation
              End Site
              {
                OFFSET -15 0 0
              }
            }
          }
        }
      }
      JOINT left_manubrium
      {
        OFFSET 5.722621 16.35077 3.967754
        CHANNELS 3 Zrotation Xrotation Yrotation
        JOINT left_clavicle
        {
          OFFSET 13.16364 1.694482 -4.693211
          CHANNELS 3 Zrotation Xrotation Yrotation
          JOINT left_humerus
          {
            OFFSET 29.39168 -1.063119 -2.237045
            CHANNELS 3 Zrotation Xrotation Yrotation
            JOINT left_radius
            {
              OFFSET 24.59957 -0.9528479 0.9047498
              CHANNELS 3 Zrotation Xrotation Yrotation
              End Site
              {
                OFFSET 15 -0 -0
              }
            }
          }
        }
      }
    }
  }
}
MOTION
Frames: 13
Frame Time: 0.0416666666667
1176.836 105.2479 1805.795 -1.020529 1.552245 58.0464 3.900765 -26.47624 -0.691066 -0 19.05521 -0 -10.93214 1.789434 3.812744 -6.443024 7.203908 -15.75315 -0 15.83698 -0 13.14606 -14.79025 23.0078 -3.61114 -2.468958 4.176356 1.999666 11.49348 -7.331904 0.823608 20.47667 7.721663 6.684907 -23.23242 6.875909 6.675227 -17.25864 12.29411 83.7075 36.70792 -17.11559 -0 0 12.25965 -14.21754 8.943293 5.935837 10.85168 -24.8283 -2.019374 -88.2696 6.892029 11.38137 0 0 -16.32658 28.84842 9.425773 -22.91491
1180.808 105.2444 1807.901 -1.023661 1.550181 58.16212 3.900765 -26.47624 -0.691066 -0 19.05521 -0 -10.93214 1.789434 3.812744 -6.443024 7.203908 -15.75315 -0 15.83698 -0 13.14606 -14.79025 23.0078 -3.61114 -2.468958 4.176356 1.999666 11.49348 -7.331904 0.823608 20.47667 7.721663 6.684907 -23.23242 6.875909 6.675227 -17.25864 12.29411 83.7075 36.70792 -17.11559 -0 0 12.25965 -14.21754 8.943293 5.935837 10.85168 -24.8283 -2.019374 -88.2696 6.892029 11.38137 0 0 -16.32658 28.84842 9.425773 -22.91491
1184.785 105.2409 1809.999 -1.02679 1.548111 58.27784 3.900765 -26.47624 -0.691066 -0 19.05521 -0 -10.93214 1.789434 3.812744 -6.443024 7.203908 -15.75315 -0 15.83698 -0 13.14606 -14.79025 23.0078 -3.61114 -2.468958 4.176356 1.999666 11.49348 -7.331904 0.823608 20.47667 7.721663 6.684907 -23.23242 6.875909 6.675227 -17.25864 12.29411 83.7075 36.70792 -17.11559 -0 0 12.25965 -14.21754 8.943293 5.935837 10.85168 -24.8283 -2.019374 -88.2696 6.892029 11.38137 0 0 -16.32658 28.84842 9.425773 -22.91491
1188.766 105.2374 1812.088 -1.029914 1.546034 58.39356 3.900765 -26.47624 -0.691066 -0 19.05521 -0 -10.93214 1.789434 3.812744 -6.443024 7.203908 -15.75315 -0 15.83698 -0 13.14606 -14.79025 23.0078 -3.61114 -2.468958 4.176356 1.999666 11.49348 -7.331904 0.823608 20.47667 7.721663 6.684907 -23.23242 6.875909 6.675227 -17.25864 12.29411 83.7075 36.70792 -17.11559 -0 0 12.25965 -14.21754 8.943293 5.935837 10.85168 -24.8283 -2.019374 -88.2696 6.892029 11.38137 0 0 -16.32658 28.84842 9.425773 -22.91491
1192.751 105.234 1814.17 -1.033034 1.543951 58.50928 3.900765 -26.47624 -0.691066 -0 19.05521 -0 -10.93214 1.789434 3.812744 -6.443024 7.203908 -15.75315 -0 15.83698 -0 13.14606 -14.79025 23.0078 -3.61114 -2.468958 4.176356 1.999666 11.49348 -7.331904 0.823608 20.47667 7.721663 6.684907 -23.23242 6.875909 6.675227 -17.25864 12.29411 83.7075 36.70792 -17.11559 -0 0 12.25965 -14.21754 8.943293 5.935837 10.85168 -24.8283 -2.019374 -88.2696 6.892029 11.38137 0 0 -16.32658 28.84842 9.425773 -22.91491
1196.74 105.2305 1816.244 -1.03615 1.541862 58.625 3.900765 -26.47624 -0.691066 -0 19.05521 -0 -10.93214 1.789434 3.812744 -6.443024 7.203908 -15.75315 -0 15.83698 -0 13.14606 -14.79025 23.0078 -3.61114 -2.468958 4.176356 1.999666 11.49348 -7.331904 0.823608 20.47667 7.721663 6.684907 -23.23242 6.875909 6.675227 -17.25864 12.29411 83.7075 36.70792 -17.11559 -0 0 12.25965 -14.21754 8.943293 5.935837 10.85168 -24.8283 -2.019374 -88.2696 6.892029 11.38137 0 0 -16.32658 28.84842 9.425773 -22.91491
1200.733 105.227 1818.309 -1.039261 1.539767 58.74072 3.900765 -26.47624 -0.691066 -0 19.05521 -0 -10.93214 1.789434 3.812744 -6.443024 7.203908 -15.75315 -0 15.83698 -0 13.14606 -14.79025 23.0078 -3.61114 -2.468958 4.176356 1.999666 11.49348 -7.331904 0.823608 20.47667 7.721663 6.684907 -23.23242 6.875909 6.675227 -17.25864 12.29411 83.7075 36.70792 -17.11559 -0 0 12.25965 -14.21754 8.943293 5.935837 10.85168 -24.8283 -2.019374 -88.2696 6.892029 11.38137 0 0 -16.32658 28.84842 9.425773 -22.91491
1204.731 105.2235 1820.367 -1.042369 1.537666 58.85644 3.900765 -26.47624 -0.691066 -0 19.05521 -0 -10.93214 1.789434 3.812744 -6.443024 7.203908 -15.75315 -0 15.83698 -0 13.14606 -14.79025 23.0078 -3.61114 -2.468958 4.176356 1.999666 11.49348 -7.331904 0.823608 20.47667 7.721663 6.684907 -23.23242 6.875909 6.675227 -17.25864 12.29411 83.7075 36.70792 -17.11559 -0 0 12.25965 -14.21754 8.943293 5.935837 10.85168 -24.8283 -2.019374 -88.2696 6.892029 11.38137 0 0 -16.32658 28.84842 9.425773 -22.91491
1208.733 105.22 1822.417 -1.045472 1.535558 58.97216 3.900765 -26.47624 -0.691066 -0 19.05521 -0 -10.93214 1.789434 3.812744 -6.443024 7.203908 -15.75315 -0 15.83698 -0 13.14606 -14.79025 23.0078 -3.61114 -2.468958 4.176356 1.999666 11.49348 -7.331904 0.823608 20.47667 7.721663 6.684907 -23.23242 6.875909 6.675227 -17.25864 12.29411 83.7075 36.70792 -17.11559 -0 0 12.25965 -14.21754 8.943293 5.935837 10.85168 -24.8283 -2.019374 -88.2696 6.892029 11.38137 0 0 -16.32658 28.84842 9.425773 -22.91491
1212.738 105.2166 1824.458 -1.048571 1.533444 59.08788 3.900765 -26.47624 -0.691066 -0 19.05521 -0 -10.93214 1.789434 3.812744 -6.443024 7.203908 -15.75315 -0 15.83698 -0 13.14606 -14.79025 23.0078 -3.61114 -2.468958 4.176356 1.999666 11.49348 -7.331904 0.823608 20.47667 7.721663 6.684907 -23.23242 6.875909 6.675227 -17.25864 12.29411 83.7075 36.70792 -17.11559 -0 0 12.25965 -14.21754 8.943293 5.935837 10.85168 -24.8283 -2.019374 -88.2696 6.892029 11.38137 0 0 -16.32658 28.84842 9.425773 -22.91491
1216.748 105.2131 1826.491 -1.051665 1.531323 59.2036 3.900765 -26.47624 -0.691066 -0 19.05521 -0 -10.93214 1.789434 3.812744 -6.443024 7.203908 -15.75315 -0 15.83698 -0 13.14606 -14.79025 23.0078 -3.61114 -2.468958 4.176356 1.999666 11.49348 -7.331904 0.823608 20.47667 7.721663 6.684907 -23.23242 6.875909 6.675227 -17.25864 12.29411 83.7075 36.70792 -17.11559 -0 0 12.25965 -14.21754 8.943293 5.935837 10.85168 -24.8283 -2.019374 -88.2696 6.892029 11.38137 0 0 -16.32658 28.84842 9.425773 -22.91491
1220.762 105.2096 1828.516 -1.054755 1.529197 59.31932 3.900765 -26.47624 -0.691066 -0 19.05521 -0 -10.93214 1.789434 3.812744 -6.443024 7.203908 -15.75315 -0 15.83698 -0 13.14606 -14.79025 23.0078 -3.61114 -2.468958 4.176356 1.999666 11.49348 -7.331904 0.823608 20.47667 7.721663 6.684907 -23.23242 6.875909 6.675227 -17.25864 12.29411 83.7075 36.70792 -17.11559 -0 0 12.25965 -14.21754 8.943293 5.935837 10.85168 -24.8283 -2.019374 -88.2696 6.892029 11.38137 0 0 -16.32658 28.84842 9.425773 -22.91491
1224.781 105.2061 1830.534 -1.057841 1.527064 59.43503 3.900765 -26.47624 -0.691066 -0 19.05521 -0 -10.93214 1.789434 3.812744 -6.443024 7.203908 -15.75315 -0 15.83698 -0 13.14606 -14.79025 23.0078 -3.61114 -2.468958 4.176356 1.999666 11.49348 -7.331904 0.823608 20.47667 7.721663 6.684907 -23.23242 6.875909 6.675227 -17.25864 12.29411 83.7075 36.70792 -17.11559 -0 0 12.25965 -14.21754 8.943293 5.935837 10.85168 -24.8283 -2.019374 -88.2696 6.892029 11.38137 0 0 -16.32658 28.84842 9.425773 -22.91491
